<svg xmlns="http://www.w3.org/2000/svg" width="500" height="300" viewBox="0 0 500 300">
  <!-- Background -->
  <rect width="500" height="300" fill="#f8f9fa" rx="5" ry="5" />
  
  <!-- Title -->
  <text x="250" y="30" font-family="Arial" font-size="16" text-anchor="middle" font-weight="bold">Security Alert Dashboard</text>
  
  <!-- Alert Summary Cards -->
  <!-- Critical Alerts -->
  <rect x="30" y="50" width="100" height="80" fill="#e74c3c" rx="5" ry="5" />
  <text x="80" y="85" font-family="Arial" font-size="24" text-anchor="middle" fill="white" font-weight="bold">5</text>
  <text x="80" y="110" font-family="Arial" font-size="12" text-anchor="middle" fill="white">Critical</text>
  
  <!-- High Alerts -->
  <rect x="140" y="50" width="100" height="80" fill="#e67e22" rx="5" ry="5" />
  <text x="190" y="85" font-family="Arial" font-size="24" text-anchor="middle" fill="white" font-weight="bold">12</text>
  <text x="190" y="110" font-family="Arial" font-size="12" text-anchor="middle" fill="white">High</text>
  
  <!-- Medium Alerts -->
  <rect x="250" y="50" width="100" height="80" fill="#f1c40f" rx="5" ry="5" />
  <text x="300" y="85" font-family="Arial" font-size="24" text-anchor="middle" fill="white" font-weight="bold">28</text>
  <text x="300" y="110" font-family="Arial" font-size="12" text-anchor="middle" fill="white">Medium</text>
  
  <!-- Low Alerts -->
  <rect x="360" y="50" width="100" height="80" fill="#3498db" rx="5" ry="5" />
  <text x="410" y="85" font-family="Arial" font-size="24" text-anchor="middle" fill="white" font-weight="bold">43</text>
  <text x="410" y="110" font-family="Arial" font-size="12" text-anchor="middle" fill="white">Low</text>
  
  <!-- Alert Table -->
  <rect x="30" y="150" width="440" height="130" fill="white" rx="5" ry="5" stroke="#ddd" />
  
  <!-- Table Header -->
  <rect x="30" y="150" width="440" height="25" fill="#34495e" rx="5" ry="5" />
  <text x="50" y="167" font-family="Arial" font-size="12" fill="white">Time</text>
  <text x="130" y="167" font-family="Arial" font-size="12" fill="white">Severity</text>
  <text x="210" y="167" font-family="Arial" font-size="12" fill="white">Source</text>
  <text x="290" y="167" font-family="Arial" font-size="12" fill="white">Destination</text>
  <text x="390" y="167" font-family="Arial" font-size="12" fill="white">Description</text>
  
  <!-- Table Rows -->
  <!-- Row 1 -->
  <rect x="30" y="175" width="440" height="20" fill="#fadbd8" />
  <text x="50" y="190" font-family="Arial" font-size="10">12:45:22</text>
  <rect x="130" y="178" width="60" height="15" fill="#e74c3c" rx="3" ry="3" />
  <text x="160" y="190" font-family="Arial" font-size="10" text-anchor="middle" fill="white">Critical</text>
  <text x="210" y="190" font-family="Arial" font-size="10">192.168.1.5</text>
  <text x="290" y="190" font-family="Arial" font-size="10">10.0.0.2</text>
  <text x="390" y="190" font-family="Arial" font-size="10">Malware Detected</text>
  
  <!-- Row 2 -->
  <rect x="30" y="195" width="440" height="20" fill="white" />
  <text x="50" y="210" font-family="Arial" font-size="10">12:42:18</text>
  <rect x="130" y="198" width="60" height="15" fill="#e67e22" rx="3" ry="3" />
  <text x="160" y="210" font-family="Arial" font-size="10" text-anchor="middle" fill="white">High</text>
  <text x="210" y="210" font-family="Arial" font-size="10">External</text>
  <text x="290" y="210" font-family="Arial" font-size="10">192.168.1.1</text>
  <text x="390" y="210" font-family="Arial" font-size="10">Brute Force Attempt</text>
  
  <!-- Row 3 -->
  <rect x="30" y="215" width="440" height="20" fill="#eaeded" />
  <text x="50" y="230" font-family="Arial" font-size="10">12:40:05</text>
  <rect x="130" y="218" width="60" height="15" fill="#f1c40f" rx="3" ry="3" />
  <text x="160" y="230" font-family="Arial" font-size="10" text-anchor="middle" fill="white">Medium</text>
  <text x="210" y="230" font-family="Arial" font-size="10">192.168.1.10</text>
  <text x="290" y="230" font-family="Arial" font-size="10">External</text>
  <text x="390" y="230" font-family="Arial" font-size="10">Suspicious Connection</text>
  
  <!-- Row 4 -->
  <rect x="30" y="235" width="440" height="20" fill="white" />
  <text x="50" y="250" font-family="Arial" font-size="10">12:38:57</text>
  <rect x="130" y="238" width="60" height="15" fill="#3498db" rx="3" ry="3" />
  <text x="160" y="250" font-family="Arial" font-size="10" text-anchor="middle" fill="white">Low</text>
  <text x="210" y="250" font-family="Arial" font-size="10">192.168.1.8</text>
  <text x="290" y="250" font-family="Arial" font-size="10">192.168.1.1</text>
  <text x="390" y="250" font-family="Arial" font-size="10">Failed Login Attempt</text>
  
  <!-- Row 5 -->
  <rect x="30" y="255" width="440" height="20" fill="#eaeded" />
  <text x="50" y="270" font-family="Arial" font-size="10">12:35:42</text>
  <rect x="130" y="258" width="60" height="15" fill="#e74c3c" rx="3" ry="3" />
  <text x="160" y="270" font-family="Arial" font-size="10" text-anchor="middle" fill="white">Critical</text>
  <text x="210" y="270" font-family="Arial" font-size="10">External</text>
  <text x="290" y="270" font-family="Arial" font-size="10">192.168.1.5</text>
  <text x="390" y="270" font-family="Arial" font-size="10">Data Exfiltration</text>
</svg>